# File created by Blade
# Date/Time:  Fri Jan 16 17:52:57 2015
#---------------------------------------------------------
:version 1.10
:name HOM
:units
  mass 1.0
  length 1.000000
  angle deg
:documentation
     Acclaim Skeleton File
:root
   axis xyz
   order TX TY TZ RX RY RZ
   position 0.000000 0.000000 0.000000
   orientation 0 0 0
:bonedata
   begin
      id 1
      name Spine_dum
      direction 0.000000 1.000000 0.000000
      length 7.170412
      axis 0.0 0.0 0.0 xyz
   end
   begin
      id 2
      name LeftUpLeg_dum
      direction 1.000000 0.000000 0.000000
      length 4.318350
      axis 0.0 0.0 0.0 xyz
   end
   begin
      id 3
      name RightUpLeg_dum
      direction -1.000000 0.000000 0.000000
      length 4.318350
      axis 0.0 0.0 0.0 xyz
   end
   begin
      id 4
      name Spine
      direction 0.000000 1.000000 0.000000
      length 0.000000
      axis 0.0 0.0 0.0 xyz
      dof rx ry rz
   end
   begin
      id 5
      name Spine_dum1
      direction 0.000000 1.000000 0.000000
      length 14.276153
      axis 0.0 0.0 0.0 xyz
   end
   begin
      id 6
      name Spine_dum2
      direction 0.000000 1.000000 0.000000
      length 10.718243
      axis 0.0 0.0 0.0 xyz
   end
   begin
      id 7
      name Spine_dum3
      direction 0.000000 1.000000 0.000000
      length 10.718243
      axis 0.0 0.0 0.0 xyz
   end
   begin
      id 8
      name Head
      direction 0.000000 1.000000 0.000000
      length 4.527550
      axis 0.0 0.0 0.0 xyz
      dof rx ry rz
   end
   begin
      id 9
      name LeftShoulder
      direction 1.000000 0.000000 0.000000
      length 7.058872
      axis 0.0 0.0 -90.0 xyz
      dof rx ry rz
   end
   begin
      id 10
      name LeftArm
      direction 1.000000 0.000000 0.000000
      length 10.955525
      axis 0.0 0.0 -90.0 xyz
      dof rx ry rz
   end
   begin
      id 11
      name LeftForeArm
      direction 1.000000 0.000000 0.000000
      length 8.193716
      axis 0.0 0.0 -90.0 xyz
      dof ry rz rx
   end
   begin
      id 12
      name LeftHand
      direction 0.000000 0.000000 0.000000
      length 0.000000
      axis 0.0 0.0 -90.0 xyz
      dof rx ry rz
   end
   begin
      id 13
      name LeftHand_dum1
      direction 0.000000 0.000000 0.000000
      length 0.000000
      axis 0.0 0.0 -90.0 xyz
   end
   begin
      id 14
      name LeftHand_dum2
      direction 1.000000 0.000000 0.000000
      length 3.937000
      axis 0.0 0.0 -90.0 xyz
   end
   begin
      id 15
      name LeftHandThumb1
      direction 0.000000 0.000000 1.000000
      length 3.937000
      axis 0.0 0.0 -90.0 xyz
      dof rx rz ry
   end
   begin
      id 16
      name RightShoulder
      direction -1.000000 0.000000 0.000000
      length 7.058872
      axis 0.0 0.0 90.0 xyz
      dof rx ry rz
   end
   begin
      id 17
      name RightArm
      direction -1.000000 0.000000 0.000000
      length 10.955525
      axis 0.0 0.0 90.0 xyz
      dof rx ry rz
   end
   begin
      id 18
      name RightForeArm
      direction -1.000000 0.000000 0.000000
      length 8.193716
      axis 0.0 0.0 90.0 xyz
      dof ry rz rx
   end
   begin
      id 19
      name RightHand
      direction 0.000000 0.000000 0.000000
      length 0.000000
      axis 0.0 0.0 90.0 xyz
      dof rx ry rz
   end
   begin
      id 20
      name RightHand_dum1
      direction 0.000000 0.000000 0.000000
      length 0.000000
      axis 0.0 0.0 90.0 xyz
   end
   begin
      id 21
      name RightHand_dum2
      direction -1.000000 0.000000 0.000000
      length 3.937000
      axis 0.0 0.0 90.0 xyz
   end
   begin
      id 22
      name RightHandThumb1
      direction 0.000000 0.000000 1.000000
      length 3.937000
      axis 0.0 0.0 90.0 xyz
      dof rx rz ry
   end
   begin
      id 23
      name LeftUpLeg
      direction 0.000000 -1.000000 0.000000
      length 17.323638
      axis 0.0 0.0 0.0 xyz
      dof rx ry rz
   end
   begin
      id 24
      name LeftLeg
      direction 0.000000 -1.000000 0.000000
      length 16.270368
      axis 0.0 0.0 0.0 xyz
      dof rx ry rz
   end
   begin
      id 25
      name LeftFoot
      direction 0.000000 -0.258819 0.965926
      length 4.922846
      axis 15.0 0.0 0.0 xyz
      dof rx ry rz
   end
   begin
      id 26
      name LeftToeBase
      direction 0.000000 0.000000 1.000000
      length 2.952750
      axis 0.0 0.0 0.0 xyz
      dof rx ry rz
   end
   begin
      id 27
      name RightUpLeg
      direction 0.000000 -1.000000 0.000000
      length 17.323638
      axis 0.0 0.0 0.0 xyz
      dof rx ry rz
   end
   begin
      id 28
      name RightLeg
      direction 0.000000 -1.000000 0.000000
      length 16.270368
      axis 0.0 0.0 0.0 xyz
      dof rx ry rz
   end
   begin
      id 29
      name RightFoot
      direction 0.000000 -0.258819 0.965926
      length 4.922846
      axis 15.0 0.0 0.0 xyz
      dof rx ry rz
   end
   begin
      id 30
      name RightToeBase
      direction 0.000000 0.000000 1.000000
      length 2.952750
      axis 0.0 0.0 0.0 xyz
      dof rx ry rz
   end
:hierarchy
   begin
      root Spine_dum LeftUpLeg_dum RightUpLeg_dum
      Spine_dum Spine
      LeftUpLeg_dum LeftUpLeg
      RightUpLeg_dum RightUpLeg
      Spine Spine_dum1 Spine_dum2 Spine_dum3
      Spine_dum1 Head
      Spine_dum2 LeftShoulder
      Spine_dum3 RightShoulder
      LeftShoulder LeftArm
      LeftArm LeftForeArm
      LeftForeArm LeftHand
      LeftHand LeftHand_dum1 LeftHand_dum2
      LeftHand_dum1 LeftHandThumb1
      RightShoulder RightArm
      RightArm RightForeArm
      RightForeArm RightHand
      RightHand RightHand_dum1 RightHand_dum2
      RightHand_dum1 RightHandThumb1
      LeftUpLeg LeftLeg
      LeftLeg LeftFoot
      LeftFoot LeftToeBase
      RightUpLeg RightLeg
      RightLeg RightFoot
      RightFoot RightToeBase
   end

# File created by Blade
# Date/Time:  Fri Jan 16 17:53:05 2015
# Frame Rate: 120.000 fps
#------------------------------------------------------
:FULLY-SPECIFIED
:DEGREES
724
root -3.059778 35.009891 -11.296083 -1.580466 -6.241177 -6.261261
Spine 3.971279 -1.583041 8.072301
Head 1.932652 6.397940 -7.930015
LeftShoulder -24.647734 16.326044 -10.143968
LeftArm 25.290858 -39.581111 -74.612274
LeftForeArm -0.227012 -0.000000 124.753755
LeftHand 1.761822 -0.000000 13.097144
LeftHandThumb1 -26.253704 0.000000 33.147579
RightShoulder -5.538896 -6.560629 -0.812927
RightArm 5.228327 -19.159446 71.266772
RightForeArm -17.428364 -0.000000 22.627821
RightHand 0.328250 0.000000 -1.059553
RightHandThumb1 -24.326973 -0.000000 -32.862282
LeftUpLeg 10.153788 9.096613 -4.924043
LeftLeg -8.383771 -0.000000 0.000000
LeftFoot -16.730528 30.354111 -6.284829
LeftToeBase 19.550675 -0.000000 -0.000000
RightUpLeg 4.510687 -29.073995 -1.267387
RightLeg 102.205094 -0.000000 -0.000000
RightFoot -33.028785 -34.501465 27.854199
RightToeBase 1.045087 -0.000000 -0.000000
725
root -3.063206 35.008063 -11.293007 -1.561856 -6.321186 -6.262264
Spine 3.934459 -1.441089 8.061194
Head 2.025853 6.400202 -7.892210
LeftShoulder -24.697969 16.420523 -10.184907
LeftArm 25.317487 -39.613415 -74.567011
LeftForeArm -0.356884 -0.000000 124.819104
LeftHand 1.678713 -0.000000 13.153165
LeftHandThumb1 -26.253704 0.000000 33.147579
RightShoulder -5.532600 -6.598657 -0.803709
RightArm 5.277641 -19.178940 71.260851
RightForeArm -17.300431 -0.000000 22.612304
RightHand 0.392237 -0.000000 -1.262771
RightHandThumb1 -24.326973 -0.000000 -32.862282
LeftUpLeg 10.120880 9.110288 -4.919728
LeftLeg -8.329161 -0.000000 0.000000
LeftFoot -16.780626 30.373260 -6.250797
LeftToeBase 19.511402 -0.000000 -0.000000
RightUpLeg 4.579745 -30.126934 -1.412360
RightLeg 102.952061 -0.000000 -0.000000
RightFoot -33.303541 -34.068236 28.269594
RightToeBase 1.300125 -0.000000 -0.000000
726
root -3.066038 35.003955 -11.287229 -1.558859 -6.392045 -6.208936
Spine 3.901457 -1.293974 7.972686
Head 2.123074 6.372805 -7.830732
LeftShoulder -24.739171 16.500779 -10.175649
LeftArm 25.306790 -39.661621 -74.523047
LeftForeArm -0.443127 -0.000000 124.866986
LeftHand 1.652416 -0.000000 13.216444
LeftHandThumb1 -26.253704 0.000000 33.147579
RightShoulder -5.546400 -6.651272 -0.794997
RightArm 5.335987 -19.233354 71.278479
RightForeArm -17.192087 -0.000000 22.609299
RightHand 0.310406 0.000000 -1.346193
RightHandThumb1 -24.326973 -0.000000 -32.862282
LeftUpLeg 10.115834 9.003223 -4.978352
LeftLeg -8.300126 -0.000000 0.000000
LeftFoot -16.808847 30.453203 -6.283913
LeftToeBase 19.414432 -0.000000 -0.000000
RightUpLeg 4.714195 -31.200848 -1.690376
RightLeg 103.709657 -0.000000 -0.000000
RightFoot -33.425372 -33.550788 28.493552
RightToeBase 1.345733 -0.000000 -0.000000
727
root -3.064239 34.999589 -11.280938 -1.536961 -6.454439 -6.146184
Spine 3.836602 -1.169517 7.888122
Head 2.228857 6.368825 -7.784787
LeftShoulder -24.803578 16.589560 -10.214084
LeftArm 25.308237 -39.711039 -74.450107
LeftForeArm -0.562718 -0.000000 124.907743
LeftHand 1.731467 -0.000000 13.144813
LeftHandThumb1 -26.253704 0.000000 33.147579
RightShoulder -5.537659 -6.688691 -0.787141
RightArm 5.351453 -19.269762 71.292524
RightForeArm -17.153067 0.000000 22.619947
RightHand 0.319022 -0.000000 -1.288540
RightHandThumb1 -24.326973 -0.000000 -32.862282
LeftUpLeg 10.086506 8.865820 -5.058945
LeftLeg -8.263904 -0.000000 0.000000
LeftFoot -16.860790 30.547275 -6.328024
LeftToeBase 19.440268 -0.000000 -0.000000
RightUpLeg 4.843101 -32.244361 -1.987971
RightLeg 104.475911 -0.000000 -0.000000
RightFoot -33.678286 -32.874864 28.786220
RightToeBase 1.310655 -0.000000 -0.000000
728
root -3.062304 34.995353 -11.275549 -1.506973 -6.628621 -6.078513
Spine 3.774940 -0.919678 7.800305
Head 2.340482 6.340702 -7.736817
LeftShoulder -24.850232 16.665842 -10.264952
LeftArm 25.317075 -39.756392 -74.326988
LeftForeArm -0.712573 -0.000000 124.955535
LeftHand 1.782770 -0.000000 13.185856
LeftHandThumb1 -26.253704 0.000000 33.147579
RightShoulder -5.546824 -6.737024 -0.768064
RightArm 5.393579 -19.324966 71.291910
RightForeArm -17.158731 0.000000 22.601479
RightHand 0.301809 -0.000000 -1.452760
RightHandThumb1 -24.326973 -0.000000 -32.862282
LeftUpLeg 10.047064 8.879651 -5.137753
LeftLeg -8.215223 -0.000000 0.000000
LeftFoot -16.901147 30.585347 -6.387873
LeftToeBase 19.344929 -0.000000 -0.000000
RightUpLeg 4.917863 -33.126422 -2.242910
RightLeg 105.259788 -0.000000 -0.000000
RightFoot -33.860145 -32.222750 29.056911
RightToeBase 1.443998 -0.000000 -0.000000
729
root -3.060691 34.992229 -11.284585 -1.426097 -7.023733 -6.036012
Spine 3.731749 -0.455363 7.753579
Head 2.401359 6.305605 -7.717557
LeftShoulder -24.878378 16.704328 -10.344218
LeftArm 25.316403 -39.824768 -74.164952
LeftForeArm -0.905135 0.000000 125.016296
LeftHand 1.765820 -0.000000 13.261260
LeftHandThumb1 -26.253704 0.000000 33.147579
RightShoulder -5.533865 -6.745753 -0.744990
RightArm 5.425199 -19.329491 71.289906
RightForeArm -17.127778 -0.000000 22.589371
RightHand 0.467790 -0.000000 -1.310517
RightHandThumb1 -24.326973 -0.000000 -32.862282
LeftUpLeg 9.939337 9.112979 -5.188075
LeftLeg -8.158813 -0.000000 0.000000
LeftFoot -16.971319 30.610122 -6.443296
LeftToeBase 19.287902 -0.000000 -0.000000
RightUpLeg 4.797077 -33.755209 -2.341861
RightLeg 106.124563 -0.000000 -0.000000
RightFoot -33.975468 -31.570008 29.304571
RightToeBase 1.452930 -0.000000 -0.000000
